<svg width="48" height="48" viewBox="0 0 48 48" fill="none" xmlns="http://www.w3.org/2000/svg">
<g clip-path="url(#clip0_1_2)">
<path d="M24 45C18.4305 45 13.089 42.7875 9.15076 38.8492C5.21249 34.911 3 29.5695 3 24C3 18.4305 5.21249 13.089 9.15076 9.15076C13.089 5.21249 18.4305 3 24 3C29.5695 3 34.911 5.21249 38.8492 9.15076C42.7875 13.089 45 18.4305 45 24C45 29.5695 42.7875 34.911 38.8492 38.8492C34.911 42.7875 29.5695 45 24 45ZM24 48C30.3652 48 36.4697 45.4714 40.9706 40.9706C45.4714 36.4697 48 30.3652 48 24C48 17.6348 45.4714 11.5303 40.9706 7.02944C36.4697 2.52856 30.3652 0 24 0C17.6348 0 11.5303 2.52856 7.02944 7.02944C2.52856 11.5303 0 17.6348 0 24C0 30.3652 2.52856 36.4697 7.02944 40.9706C11.5303 45.4714 17.6348 48 24 48V48Z" fill="#DDA2E7"/>
<path d="M12.855 28.701C13.1995 28.5021 13.6089 28.4482 13.9932 28.5512C14.3775 28.6541 14.7051 28.9055 14.904 29.25C15.8253 30.847 17.1512 32.1731 18.748 33.0948C20.3448 34.0164 22.1563 34.5011 24 34.5C25.8437 34.5011 27.6552 34.0164 29.252 33.0948C30.8488 32.1731 32.1747 30.847 33.096 29.25C33.1938 29.078 33.3246 28.9271 33.4809 28.8059C33.6373 28.6847 33.8161 28.5956 34.007 28.5438C34.1979 28.492 34.3971 28.4784 34.5933 28.5039C34.7895 28.5294 34.9787 28.5934 35.15 28.6924C35.3213 28.7913 35.4714 28.9231 35.5915 29.0802C35.7117 29.2374 35.7996 29.4167 35.8501 29.608C35.9007 29.7992 35.9129 29.9986 35.8861 30.1946C35.8594 30.3906 35.794 30.5793 35.694 30.75C34.5094 32.8031 32.8048 34.5079 30.752 35.6928C28.6991 36.8778 26.3703 37.5011 24 37.5C21.6297 37.5011 19.3009 36.8778 17.248 35.6928C15.1952 34.5079 13.4906 32.8031 12.306 30.75C12.1071 30.4055 12.0532 29.9961 12.1562 29.6118C12.2591 29.2275 12.5105 28.8999 12.855 28.701ZM21 19.5C21 21.984 19.656 24 18 24C16.344 24 15 21.984 15 19.5C15 17.016 16.344 15 18 15C19.656 15 21 17.016 21 19.5ZM33 19.5C33 21.984 31.656 24 30 24C28.344 24 27 21.984 27 19.5C27 17.016 28.344 15 30 15C31.656 15 33 17.016 33 19.5Z" fill="#DDA2E7"/>
</g>
<defs>
<clipPath id="clip0_1_2">
<rect width="48" height="48" fill="white"/>
</clipPath>
</defs>
</svg>



