<svg width="20" height="21" viewBox="0 0 20 21" fill="none" xmlns="http://www.w3.org/2000/svg">
<path fill-rule="evenodd" clip-rule="evenodd" d="M10 0C9.1375 0 7.69625 0.347813 6.34 0.735C4.9525 1.12875 3.55375 1.59469 2.73125 1.87687C2.38736 1.99612 2.08249 2.2148 1.85165 2.5078C1.6208 2.80079 1.47336 3.15622 1.42625 3.53325C0.68125 9.40931 2.41 13.7642 4.5075 16.6451C5.39698 17.8775 6.45753 18.9628 7.65375 19.8647C8.13625 20.223 8.58375 20.4973 8.96375 20.685C9.31375 20.8583 9.69 21 10 21C10.31 21 10.685 20.8583 11.0363 20.685C11.4944 20.4512 11.9326 20.1768 12.3463 19.8647C13.5425 18.9628 14.6031 17.8775 15.4925 16.6451C17.59 13.7642 19.3188 9.40931 18.5738 3.53325C18.5267 3.15604 18.3793 2.8004 18.1485 2.50718C17.9176 2.21396 17.6127 1.99504 17.2687 1.87556C16.0748 1.4645 14.8715 1.08377 13.66 0.733688C12.3038 0.349125 10.8625 0 10 0ZM10 6.5625C10.4428 6.56181 10.8715 6.72568 11.2103 7.02511C11.549 7.32453 11.7759 7.74017 11.8508 8.19842C11.9257 8.65666 11.8437 9.12794 11.6193 9.52878C11.3949 9.92962 11.0427 10.2342 10.625 10.3884L11.1063 13.0003C11.1238 13.0953 11.121 13.1932 11.0983 13.287C11.0756 13.3807 11.0333 13.4681 10.9747 13.5427C10.916 13.6173 10.8424 13.6774 10.759 13.7187C10.6757 13.7599 10.5847 13.7813 10.4925 13.7812H9.5075C9.41545 13.7811 9.32458 13.7596 9.24137 13.7182C9.15816 13.6769 9.08467 13.6168 9.02616 13.5422C8.96764 13.4676 8.92554 13.3803 8.90287 13.2866C8.8802 13.193 8.87751 13.0952 8.895 13.0003L9.375 10.3884C8.95729 10.2342 8.60507 9.92962 8.38071 9.52878C8.15635 9.12794 8.07434 8.65666 8.1492 8.19842C8.22405 7.74017 8.45095 7.32453 8.7897 7.02511C9.12846 6.72568 9.5572 6.56181 10 6.5625V6.5625Z" fill="#699BF7"/>
</svg>
